<?xml version="1.0" encoding="UTF-8"?>
<svg xmlns="http://www.w3.org/2000/svg" xmlns:xlink="http://www.w3.org/1999/xlink" width="4000px" height="2442px" viewBox="0 0 4000 2442" version="1.1">
<g id="surface1">
<path style=" stroke:none;fill-rule:nonzero;fill:rgb(8.627451%,12.156863%,20%);fill-opacity:1;" d="M 4000 0 C 4000.195312 226 4000.324219 452 3998.917969 1094.019531 C 3998.820312 1121.410156 3998.730469 1148.800781 3998.640625 1176.191406 C 3998.515625 1214.320312 3998.382812 1252.449219 3998.230469 1290.578125 C 3998.214844 1294.351562 3998.203125 1298.128906 3998.1875 1301.902344 C 3998.179688 1303.753906 3998.171875 1305.605469 3998.164062 1307.511719 C 3998.113281 1320.289062 3998.070312 1333.066406 3998.03125 1345.847656 C 3997.976562 1362.761719 3997.910156 1379.679688 3997.832031 1396.59375 C 3997.804688 1402.699219 3997.785156 1408.804688 3997.769531 1414.90625 C 3997.671875 1448.996094 3996.914062 1482.867188 3994.445312 1516.875 C 3834.273438 1590.863281 3669.226562 1653.054688 3502.777344 1711.34375 C 3500.007812 1712.316406 3497.238281 1713.285156 3494.382812 1714.285156 C 3401.519531 1746.78125 3307.867188 1776.703125 3213.890625 1805.800781 C 3210.628906 1806.8125 3207.367188 1807.820312 3204.007812 1808.863281 C 2986.839844 1876.027344 2767.621094 1936.34375 2547.222656 1991.9375 C 2545.09375 1992.476562 2542.964844 1993.011719 2540.773438 1993.566406 C 2287.304688 2057.523438 2032.578125 2116.054688 194.617188 2423.941406 C 192.566406 2424.167969 190.515625 2424.390625 188.402344 2424.621094 C 143.453125 2429.539062 98.476562 2434.171875 53.460938 2438.441406 C 51.546875 2438.625 49.632812 2438.808594 47.660156 2438.996094 C 42.261719 2439.511719 36.863281 2440.015625 31.460938 2440.519531 C 28.394531 2440.804688 25.328125 2441.09375 22.167969 2441.390625 C 14.796875 2441.933594 7.390625 2442 0 2442 C 0 1788.328125 0 1134.65625 0 461.175781 C 43.726562 461.175781 43.726562 461.175781 61.144531 462.0625 C 63.070312 462.15625 64.996094 462.253906 66.980469 462.351562 C 71.109375 462.554688 75.242188 462.765625 79.375 462.976562 C 86.097656 463.324219 92.824219 463.660156 99.550781 463.992188 C 109.328125 464.472656 119.109375 464.960938 128.890625 465.449219 C 187.785156 468.375 246.691406 471.1875 305.613281 473.542969 C 307.738281 473.625 309.863281 473.710938 312.054688 473.800781 C 418.910156 477.988281 525.816406 481.175781 632.726562 483.59375 C 635.371094 483.65625 638.015625 483.714844 640.742188 483.777344 C 777.800781 486.851562 914.847656 487.03125 1051.929688 486.890625 C 1075.167969 486.871094 1098.40625 486.878906 1121.644531 486.902344 C 1254.179688 487.03125 1386.671875 486.863281 1519.171875 483.59375 C 1521.527344 483.535156 1523.882812 483.480469 1526.308594 483.417969 C 1578.863281 482.109375 1631.40625 480.453125 1683.945312 478.660156 C 1687.332031 478.546875 1687.332031 478.546875 1690.789062 478.425781 C 1902.699219 471.152344 2114.476562 459.164062 3786.109375 130.574219 C 3788.753906 129.304688 3791.394531 128.039062 3794.113281 126.734375 C 3860.726562 94.554688 3924.160156 56.839844 3982.226562 10.808594 C 3995.9375 0 3995.9375 0 4000 0 Z M 4000 0 "/>
</g>
</svg>
