<?xml version="1.0" encoding="UTF-8"?>
<svg version="1.1" xmlns="http://www.w3.org/2000/svg" width="4506" height="3372">
<path d="M0 0 C1486.98 0 2973.96 0 4506 0 C4506 1112.76 4506 2225.52 4506 3372 C3019.02 3372 1532.04 3372 0 3372 C0 2259.24 0 1146.48 0 0 Z " fill="#161F32" transform="translate(0,0)"/>
<path d="M0 0 C1486.65 0 2973.3 0 4505 0 C4498.17154812 7.9665272 4498.17154812 7.9665272 4495.125 11 C4494.52945313 11.598125 4493.93390625 12.19625 4493.3203125 12.8125 C4491.33078262 14.68815106 4489.30592165 16.48871492 4487.2421875 18.28125 C4483.06139047 21.91824292 4479.02250118 25.68962291 4475 29.5 C4470.35645563 33.89866996 4465.66109104 38.20839167 4460.83056641 42.40136719 C4458.40915617 44.51598364 4456.04879549 46.69364771 4453.6875 48.875 C4450.06476095 52.18336914 4446.38307109 55.36012358 4442.5625 58.4375 C4438.56775746 61.65943317 4434.75447891 65.00657611 4431 68.5 C4426.3675162 72.80996438 4421.57877767 76.85061168 4416.6484375 80.8203125 C4414.02724881 82.97757399 4411.50845719 85.21311 4409 87.5 C4404.75832974 91.3609219 4400.37966073 95.00549703 4395.921875 98.61328125 C4392.72588968 101.22390563 4389.57931816 103.88724298 4386.4375 106.5625 C4381.83478161 110.47551854 4377.17556575 114.30079538 4372.44140625 118.0546875 C4369.87875662 120.09660672 4367.34400617 122.16961644 4364.8125 124.25 C4343.23207652 141.93986826 4321.15576564 159.03957606 4299 176 C4298.24380371 176.57975586 4297.48760742 177.15951172 4296.70849609 177.75683594 C4279.09030399 191.25760273 4261.24753234 204.42396939 4243.23388672 217.39111328 C4240.23775971 219.54897962 4237.24460377 221.71094481 4234.25170898 223.87329102 C4232.75278008 224.95616679 4231.25359456 226.03868743 4229.75415039 227.12084961 C4225.97520934 229.84837352 4222.19952705 232.58021999 4218.4296875 235.3203125 C4210.16528781 241.32105073 4201.84514109 247.21828228 4193.41015625 252.9765625 C4187.04682144 257.32565767 4180.735338 261.75001782 4174.41918945 266.16723633 C4168.85806058 270.04649141 4163.25176813 273.84637414 4157.60253906 277.59594727 C4153.04543568 280.62884773 4148.51673284 283.70374297 4143.984375 286.7734375 C4142.13676154 288.02350075 4140.28910454 289.27349964 4138.44140625 290.5234375 C4135.59979304 292.44586336 4132.7587314 294.36907765 4129.91943359 296.29492188 C4119.55546857 303.32292384 4109.15979724 310.25025802 4098.50341797 316.82763672 C4093.50280024 319.91500118 4088.59679965 323.14511569 4083.6875 326.375 C4073.52631937 333.02784461 4063.29296473 339.55341674 4053 346 C4051.64600098 346.84981445 4051.64600098 346.84981445 4050.26464844 347.71679688 C4027.19346799 362.19622256 4004.00216789 376.46600632 3980.61767578 390.43408203 C3978.44922619 391.73126872 3976.283684 393.03292521 3974.12109375 394.33984375 C3962.03254726 401.63779592 3949.82950321 408.7428816 3937.64013672 415.87060547 C3934.29113246 417.82913204 3930.94428736 419.79132701 3927.59765625 421.75390625 C3914.13984034 429.63730504 3900.60279834 437.36971202 3887 445 C3885.99855957 445.56187012 3884.99711914 446.12374023 3883.96533203 446.70263672 C3878.75102976 449.62696856 3873.53464193 452.54753697 3868.31640625 455.46484375 C3864.13279322 457.80428348 3859.95335219 460.15092021 3855.77734375 462.50390625 C3843.00483761 469.69364782 3830.15730264 476.72556599 3817.23828125 483.6484375 C3812.50717009 486.18489697 3807.79197264 488.74843102 3803.0859375 491.33105469 C3781.29486066 503.28816747 3759.27636104 514.83392875 3737.19287109 526.24047852 C3731.81542438 529.01813874 3726.44967255 531.81393747 3721.10717773 534.65820312 C3710.74340361 540.17186623 3700.24136839 545.39927821 3689.73217773 550.62841797 C3681.41739799 554.76644182 3673.12538374 558.9268836 3664.9375 563.3125 C3657.0356813 567.53651368 3648.98409612 571.41031801 3640.89282227 575.25683594 C3632.8365074 579.09439617 3624.84688156 583.05278621 3616.875 587.0625 C3599.66489546 595.70469638 3582.32817539 604.03623675 3564.76855469 611.94604492 C3559.19498028 614.47246292 3553.70722831 617.13224769 3548.24609375 619.890625 C3541.08443512 623.50259196 3533.83572938 626.87529639 3526.51785278 630.15719604 C3522.95491982 631.75569586 3519.39714489 633.3655759 3515.83984375 634.9765625 C3515.11067245 635.30673874 3514.38150116 635.63691498 3513.63023376 635.97709656 C3504.47210319 640.13388939 3495.37569572 644.42265509 3486.28515625 648.72485352 C3478.10909138 652.58708973 3469.87502848 656.30035295 3461.60522461 659.95727539 C3457.09579131 661.95303749 3452.60098938 663.98013382 3448.109375 666.015625 C3422.51707762 677.60236924 3396.79500038 688.87248156 3371 700 C3370.09618591 700.39014282 3369.19237183 700.78028564 3368.26116943 701.18225098 C3331.8774046 716.88613262 3295.34480406 732.23393892 3258.67669678 747.26185608 C3253.9306192 749.20703966 3249.18682127 751.15768876 3244.44406128 753.11094666 C3201.05864112 770.97327738 3157.39408858 788.11202782 3113.61761475 804.99072266 C3111.23007434 805.91128992 3108.84279679 806.83253541 3106.45556641 807.75390625 C3030.60767641 837.01041201 2954.19327452 864.79593347 2877.4747467 891.6781311 C2871.51885696 893.76510297 2865.56448977 895.856275 2859.61264038 897.95474243 C2856.16207072 899.17107471 2852.71065759 900.38500152 2849.25909424 901.59851074 C2847.74504302 902.13132219 2846.23129428 902.66499454 2844.71795654 903.1998291 C2829.86883694 908.4457191 2814.9150525 913.37967405 2799.97123432 918.34719467 C2790.30980431 921.55995616 2780.65451595 924.7910602 2770.99868011 928.02058601 C2764.52799864 930.18418898 2758.0564348 932.34515121 2751.58491135 934.50623417 C2746.10513969 936.33628591 2740.62574991 938.16746422 2735.1472168 940.0012207 C2705.3813574 949.96307695 2675.55722625 959.71213813 2645.62721634 969.16972733 C2643.09458842 969.97010745 2640.56224503 970.77138083 2638.02999878 971.57296753 C2629.142999 974.38558936 2620.25287213 977.18812796 2611.35986328 979.98168945 C2608.51115837 980.87658996 2605.66286982 981.77279747 2602.81494141 982.67016602 C2585.84971331 988.01562549 2568.86425275 993.28446128 2551.83500671 998.42256165 C2543.4528697 1000.95164943 2535.07976086 1003.50818208 2526.71484375 1006.09375 C2513.02438753 1010.31993805 2499.29555624 1014.41476209 2485.5625 1018.5 C2483.16338111 1019.21474191 2480.76429253 1019.92958554 2478.36523438 1020.64453125 C2472.41346919 1022.41771715 2466.46092353 1024.18826363 2460.50793457 1025.95733643 C2458.18758843 1026.64701303 2455.86735541 1027.33707038 2453.54724121 1028.02752686 C2436.92899532 1032.97263482 2420.28722721 1037.8302932 2403.625 1042.625 C2401.42054795 1043.26033005 2399.21612086 1043.89574669 2397.01171875 1044.53125 C2385.22110597 1047.92899547 2373.42636599 1051.31202332 2361.62670898 1054.67822266 C2357.60035928 1055.82730054 2353.57612782 1056.98364983 2349.55232239 1058.14160156 C2335.28537732 1062.24595904 2320.97304354 1066.18992519 2306.66618347 1070.15231323 C2302.99470467 1071.16923913 2299.32369375 1072.1877857 2295.65380859 1073.21044922 C2282.83873802 1076.78039304 2270.00435977 1080.27812419 2257.16796875 1083.77050781 C2247.59683554 1086.37510042 2238.02757202 1088.98488007 2228.47265625 1091.6484375 C2221.14085215 1093.69150318 2213.79489121 1095.67585419 2206.4375 1097.625 C2203.84104901 1098.31474269 2201.24467271 1099.00475875 2198.6484375 1099.6953125 C2197.96646805 1099.87664734 2197.2844986 1100.05798218 2196.5818634 1100.24481201 C2191.06491614 1101.71318382 2185.55156849 1103.19473882 2180.0390625 1104.6796875 C2160.56624659 1109.92369685 2141.0785408 1115.08946546 2121.54199219 1120.09130859 C2115.77516003 1121.57077849 2110.01261052 1123.06668767 2104.25 1124.5625 C2103.28165222 1124.81356506 2102.31330444 1125.06463013 2101.31561279 1125.32330322 C2095.81886066 1126.74864057 2090.32265328 1128.17597537 2084.828125 1129.60986328 C2069.42443051 1133.62464633 2053.99456932 1137.5255045 2038.54705811 1141.36795044 C2031.996741 1142.99739591 2025.44728412 1144.63027992 2018.8984375 1146.265625 C2018.25164158 1146.42712603 2017.60484566 1146.58862705 2016.93844986 1146.75502205 C2005.4031353 1149.63674942 1993.88580839 1152.58467295 1982.375 1155.5625 C1971.20746063 1158.44992898 1960.02804571 1161.21306166 1948.77368164 1163.74658203 C1939.58121651 1165.82781257 1930.44926408 1168.12689955 1921.3125 1170.4375 C1908.54355817 1173.66509775 1895.74626866 1176.69085738 1882.88891602 1179.54443359 C1875.14412027 1181.26951815 1867.438488 1183.10218803 1859.75 1185.0625 C1850.24739189 1187.48435693 1840.70397651 1189.65577511 1831.12475586 1191.75244141 C1823.66382486 1193.39102475 1816.23331583 1195.126464 1808.8125 1196.9375 C1799.23840444 1199.26983837 1789.63084582 1201.41802374 1780 1203.5 C1770.5567603 1205.54160133 1761.13620697 1207.64468608 1751.75 1209.9375 C1729.37866073 1215.38853426 1706.86876182 1220.2568391 1684.30737305 1224.8515625 C1676.52816252 1226.44607589 1668.79160322 1228.1790657 1661.0625 1230 C1650.61766849 1232.45737298 1640.13153149 1234.61208113 1629.6027832 1236.67749023 C1620.28862944 1238.51456262 1611.01736286 1240.5045232 1601.75 1242.5625 C1590.93855791 1244.96177291 1580.10732199 1247.1841055 1569.22241211 1249.22900391 C1562.39132774 1250.51892597 1555.59852569 1251.92929597 1548.8125 1253.4375 C1537.00338663 1256.04856534 1525.13951797 1258.344146 1513.26029968 1260.61094666 C1506.70925738 1261.86165102 1500.16117581 1263.127463 1493.61328125 1264.39453125 C1453.35043991 1272.18083539 1413.02348605 1279.44730607 1372.60546875 1286.38098145 C1368.9477101 1287.00897759 1365.29023584 1287.63860885 1361.6328125 1288.26855469 C1330.6812413 1293.5961627 1299.71219592 1298.69298332 1268.64599609 1303.30664062 C1262.50986944 1304.21953806 1256.37999257 1305.17193211 1250.25 1306.125 C1246.16715442 1306.75320691 1242.08360066 1307.3767233 1238 1308 C1236.77716309 1308.18771973 1235.55432617 1308.37543945 1234.29443359 1308.56884766 C1211.30168849 1312.09042853 1188.25677165 1315.01431158 1165.15771484 1317.74475098 C1161.20052688 1318.21287046 1157.24391057 1318.68576223 1153.28735352 1319.15917969 C1151.37910671 1319.38739116 1149.47073927 1319.61459607 1147.56225586 1319.84082031 C1141.47584478 1320.56669045 1135.39532942 1321.33162394 1129.31640625 1322.1171875 C1103.78171583 1325.40619722 1078.2121303 1328.14699204 1052.58898926 1330.64916992 C1049.44883669 1330.95612542 1046.30882416 1331.26447254 1043.16886616 1331.57341099 C1035.5820843 1332.31970867 1027.99461645 1333.05867708 1020.40652466 1333.79153442 C1017.73308299 1334.04975461 1015.05984849 1334.30987212 1012.38668823 1334.5710144 C995.85418212 1336.18223935 979.32719915 1337.51114115 962.74975586 1338.56420898 C957.25875754 1338.91315601 951.7733224 1339.3044066 946.2890625 1339.74609375 C882.3868898 1344.86414987 818.03045995 1347.82667197 753.9228363 1348.74136353 C752.52243858 1348.76497452 752.52243858 1348.76497452 751.09375 1348.7890625 C750.01315906 1348.80601591 750.01315906 1348.80601591 748.91073799 1348.82331181 C743.62381351 1348.91781052 738.34949023 1349.1092037 733.06812286 1349.36571789 C717.97141493 1350.0854872 702.89252649 1350.16259927 687.78125 1350.16796875 C685.69638229 1350.17064118 683.61151609 1350.17393287 681.5266493 1350.17723483 C672.61932901 1350.1909488 663.7120323 1350.19112956 654.80470419 1350.18809986 C652.49311015 1350.18749821 650.18151675 1350.18744984 647.86992264 1350.18758392 C598.19926011 1350.18974469 548.57012367 1349.73415229 498.91961288 1348.21045589 C493.57795289 1348.04663048 488.2361125 1347.89106813 482.89404297 1347.74121094 C455.79786467 1346.97973668 428.70753504 1346.09428478 401.625 1344.9375 C400.19688995 1344.87719604 400.19688995 1344.87719604 398.7399292 1344.81567383 C382.28709917 1344.11229803 382.28709917 1344.11229803 374.29736328 1343.21655273 C370.59015802 1342.86710629 366.87891377 1342.7746361 363.15795898 1342.66673279 C351.6212999 1342.32636706 340.10149501 1341.83600926 328.578125 1341.18359375 C327.8381213 1341.14212219 327.0981176 1341.10065063 326.33568954 1341.05792236 C303.76517998 1339.790637 281.20317443 1338.37650262 258.64111328 1336.96826172 C252.34446338 1336.57540013 246.04756972 1336.18659463 239.75061226 1335.79869843 C234.81023885 1335.49367208 229.8700465 1335.185786 224.92989731 1334.87715149 C222.60921456 1334.73262653 220.28846919 1334.58910273 217.96765518 1334.44670105 C204.87816588 1333.6423982 191.82169508 1332.68610608 178.76699829 1331.4342041 C171.60735029 1330.75835124 164.43053278 1330.37662598 157.25 1330 C145.09313561 1329.35131356 132.96322913 1328.48124626 120.82617188 1327.53076172 C114.19026472 1327.01167359 107.55258647 1326.51948623 100.9140625 1326.03515625 C98.72281672 1325.87486851 96.53157325 1325.71454927 94.34033203 1325.55419922 C93.24319885 1325.47393494 92.14606567 1325.39367065 91.01568604 1325.31097412 C68.66452356 1323.67305029 46.32961466 1321.90797646 24 1320 C16.08 1319.34 8.16 1318.68 0 1318 C0 883.06 0 448.12 0 0 Z " fill="#FEFEFE" transform="translate(0,0)"/>
<path d="M0 0 C0.33 0 0.66 0 1 0 C1.14463977 45.45400033 1.28403487 90.90801609 1.42055893 136.36204147 C1.43182521 140.11274597 1.44310953 143.86345042 1.45441055 147.61415482 C1.76611269 251.07743262 2.03354326 354.5407287 2.23837018 458.00427628 C2.25392857 465.8620124 2.26961156 473.71974828 2.28530693 481.57748413 C2.37843115 528.23296452 2.47092894 574.8884461 2.5541687 621.54394531 C2.73789161 724.42971267 2.97443924 827.31440754 3.46484375 930.19921875 C3.89571881 1020.59802224 4.23720602 1110.99685706 4.86432076 1309.13298988 C4.86978259 1310.91213787 4.87524448 1312.69128586 4.88070642 1314.47043385 C4.88341144 1315.35162073 4.88611646 1316.23280761 4.88890345 1317.14069712 C4.89984202 1320.70403777 4.91078136 1324.26737841 4.92172156 1327.83071906 C4.92719565 1329.61388578 4.93266844 1331.3970525 4.93813994 1333.18021923 C5.02002952 1359.8646759 5.10470589 1386.54912232 5.19177678 1413.23356256 C5.33213056 1456.25595339 5.46858458 1499.27835498 5.59765625 1542.30078125 C5.60022317 1543.15572681 5.60279008 1544.01067237 5.60543478 1544.89152537 C5.8543484 1627.85561101 6.04150602 1710.81939093 6 1971 C6.57648027 1970.91264342 7.15296054 1970.82528683 7.74690992 1970.73528308 C10.3809297 1970.33665008 13.01514639 1969.93933307 15.64936829 1969.54203796 C16.55626797 1969.40458774 17.46316766 1969.26713752 18.39754915 1969.12552214 C24.28961777 1968.23808481 30.17159195 1967.44602081 36.10546875 1966.89453125 C36.965495 1966.80966965 37.82552124 1966.72480804 38.71160889 1966.63737488 C40.56600052 1966.45445263 42.42058939 1966.27352003 44.27536011 1966.09448242 C49.55474107 1965.58328011 54.83203245 1965.05130571 60.109375 1964.51953125 C61.26408798 1964.403284 62.41880096 1964.28703674 63.60850525 1964.16726685 C79.72767435 1962.53414523 95.83258052 1960.76724546 111.9375 1959 C113.12341988 1958.86992994 113.12341988 1958.86992994 114.33329773 1958.73723221 C138.10641998 1956.12867935 161.86580809 1953.42437394 185.60644531 1950.53369141 C192.84004571 1949.65359334 200.07588925 1948.79245559 207.3125 1947.9375 C208.00358856 1947.85574524 208.69467712 1947.77399048 209.40670776 1947.6897583 C219.34440706 1946.51671236 229.28892454 1945.42239003 239.23956299 1944.36526489 C269.7451098 1941.12278926 300.21949182 1937.52275892 330.61791992 1933.3918457 C347.22971606 1931.13973309 363.88192472 1929.20639985 380.52734375 1927.22167969 C407.7562777 1923.97358955 434.9749157 1920.70604832 462.13832092 1916.945755 C471.85907429 1915.6010791 481.58561019 1914.29942544 491.3125 1913 C492.26138092 1912.87310791 493.21026184 1912.74621582 494.18789673 1912.61547852 C507.61716716 1910.82184161 521.05400866 1909.10081453 534.5 1907.4375 C562.13538971 1904.01485532 589.70809899 1900.22437644 617.2565918 1896.16259766 C634.07023456 1893.68466394 650.90036097 1891.34126311 667.74749756 1889.10145569 C670.96015105 1888.67404898 674.17251144 1888.24445671 677.3848877 1887.81497192 C679.63092754 1887.51585738 681.87743934 1887.2205306 684.12402344 1886.92553711 C692.77935971 1885.77685462 701.39819843 1884.46795588 710.015625 1883.0625 C724.06370643 1880.77743053 738.15891551 1878.91623603 752.27050781 1877.07275391 C765.32277208 1875.3627396 778.3350399 1873.51628354 791.32778931 1871.39834595 C799.32909567 1870.09547652 807.33752076 1868.93498866 815.375 1867.875 C824.94699357 1866.61288175 824.94699357 1866.61288175 834.46484375 1865.00390625 C841.00552438 1863.77440126 847.59127051 1862.93409983 854.1875 1862.0625 C865.60327166 1860.5281523 865.60327166 1860.5281523 876.9375 1858.5 C884.19038273 1857.05406282 891.47786677 1856.12355593 898.8125 1855.1875 C909.38232134 1853.82453732 919.87809792 1852.22993394 930.375 1850.375 C946.04458041 1847.61378349 961.75235284 1845.12717908 977.47515488 1842.68899918 C983.69069763 1841.72513518 989.90597986 1840.75959402 996.12109375 1839.79296875 C996.83232454 1839.68236807 997.54355534 1839.57176739 998.27633858 1839.45781517 C1016.71375499 1836.58897703 1035.13835744 1833.64018233 1053.5625 1830.6875 C1055.12939319 1830.43649475 1056.69628771 1830.18549772 1058.26318359 1829.93450928 C1068.50932789 1828.29302246 1078.75487766 1826.64785261 1089 1825 C1089.70588131 1824.88647942 1090.41176262 1824.77295883 1091.13903427 1824.65599823 C1113.92040521 1820.9967403 1113.92040521 1820.9967403 1136.6875 1817.25 C1137.39658508 1817.13194 1138.10567017 1817.01388 1138.83624268 1816.89224243 C1153.96773349 1814.37005533 1169.08036638 1811.74017431 1184.19338989 1809.10998535 C1200.03101134 1806.35511367 1215.87982215 1803.6779409 1231.740448 1801.05892944 C1252.55517101 1797.62155825 1273.33016698 1794.00831392 1294.08642578 1790.234375 C1306.87827676 1787.91021326 1319.68016613 1785.66424034 1332.5 1783.5 C1365.30272636 1777.9524445 1398.02710718 1771.9691145 1430.71878052 1765.80328369 C1443.96819951 1763.30443621 1457.22543314 1760.86153872 1470.5 1758.5 C1501.16184949 1753.03952884 1531.76348759 1747.25630563 1562.32171631 1741.24401855 C1573.98608347 1738.95037336 1585.66188114 1736.77363307 1597.37158203 1734.72167969 C1606.87446705 1733.04794849 1616.32918413 1731.16880967 1625.78515625 1729.25 C1632.20168028 1727.95065642 1638.63117075 1726.72356075 1645.0625 1725.5 C1652.9946066 1723.98556676 1660.91098023 1722.41658937 1668.8125 1720.75 C1692.69779375 1715.71585195 1716.64707789 1710.9471609 1740.625 1706.375 C1762.25331215 1702.25014133 1783.84424443 1697.94506828 1805.3605957 1693.26977539 C1815.48859677 1691.08062189 1825.64774847 1689.06437914 1835.81256104 1687.05526733 C1846.81986183 1684.87610447 1857.77876384 1682.53292508 1868.72314453 1680.05419922 C1875.1089167 1678.61622221 1881.49862122 1677.30063254 1887.9375 1676.125 C1898.19296469 1674.24525393 1908.35030162 1671.95061845 1918.52032471 1669.66268921 C1929.76192758 1667.13583713 1941.02047727 1664.72812663 1952.3125 1662.4375 C1964.05244137 1660.05305478 1975.74386439 1657.50913932 1987.42114258 1654.83129883 C1998.24173952 1652.35978459 2009.09546201 1650.05615249 2019.95587158 1647.76672363 C2036.40396844 1644.29934939 2052.81343747 1640.71649467 2069.18011475 1636.88293457 C2081.96357378 1633.89092788 2094.78050607 1631.09237968 2107.625 1628.375 C2120.66206063 1625.6159938 2133.63801106 1622.71688651 2146.57666016 1619.52294922 C2155.35393705 1617.36579009 2164.16510811 1615.40277573 2173 1613.5 C2184.51555624 1611.01892941 2195.97343353 1608.35809519 2207.41577148 1605.5546875 C2215.44292918 1603.59526363 2223.48967752 1601.76110843 2231.5625 1600 C2241.84422618 1597.75309442 2252.04776541 1595.26601387 2262.24731445 1592.67358398 C2270.88490369 1590.49255541 2279.55341405 1588.49367459 2288.25 1586.5625 C2299.08286874 1584.1539081 2309.86490315 1581.59045671 2320.625 1578.875 C2321.30346985 1578.70381653 2321.9819397 1578.53263306 2322.68096924 1578.35626221 C2324.68317291 1577.85089527 2326.68534191 1577.34539123 2328.6875 1576.83984375 C2340.33081429 1573.90065326 2352.01442917 1571.14200507 2363.71875 1568.45703125 C2378.28919266 1565.10401277 2392.78552428 1561.55281026 2407.25485229 1557.7883606 C2417.91958587 1555.01577158 2428.60432543 1552.42450881 2439.36328125 1550.0390625 C2445.51599416 1548.67346957 2451.61930632 1547.13028211 2457.7265625 1545.57421875 C2460.37789992 1544.90455105 2463.03249969 1544.24874348 2465.6875 1543.59375 C2467.21914795 1543.21464478 2467.21914795 1543.21464478 2468.78173828 1542.82788086 C2470.75363656 1542.33996443 2472.72592758 1541.85363061 2474.69873047 1541.36938477 C2480.65632684 1539.8899167 2486.56924105 1538.28707982 2492.4765625 1536.62109375 C2503.28607404 1533.58376065 2514.19506191 1530.98586227 2525.11376953 1528.375 C2535.09193708 1525.98457244 2545.02926442 1523.51880087 2554.89611816 1520.69921875 C2559.73439481 1519.32103776 2564.59497964 1518.1164115 2569.5 1517 C2575.98057185 1515.51221564 2582.37292723 1513.81519846 2588.76855469 1511.99829102 C2595.23043223 1510.17820933 2601.73249524 1508.54564983 2608.25 1506.9375 C2615.65205052 1505.10882572 2623.0015543 1503.18809442 2630.3203125 1501.046875 C2641.0415995 1497.99665747 2651.87038011 1495.30976135 2662.66921997 1492.54978943 C2665.98821323 1491.70141808 2669.30673824 1490.85122774 2672.625 1490 C2673.28947144 1489.82959198 2673.95394287 1489.65918396 2674.6385498 1489.48361206 C2683.70504382 1487.15433729 2692.72444508 1484.69956442 2701.71020508 1482.07592773 C2707.38046451 1480.43062754 2713.07597993 1478.95773212 2718.8125 1477.5625 C2725.76654311 1475.86368896 2732.6386717 1473.97788975 2739.5 1471.9375 C2751.26362345 1468.44297097 2763.09511489 1465.21534864 2774.9375 1462 C2778.80472732 1460.94936529 2782.67191285 1459.89857681 2786.5390625 1458.84765625 C2787.46562149 1458.5958963 2788.39218048 1458.34413635 2789.34681702 1458.08474731 C2802.54484465 1454.49587584 2815.70802308 1450.78561134 2828.86576843 1447.05218506 C2833.11844828 1445.84588595 2837.37166202 1444.64147621 2841.625 1443.4375 C2842.47377716 1443.19704956 2843.32255432 1442.95659912 2844.197052 1442.7088623 C2854.02213789 1439.92794017 2863.85402637 1437.2073999 2873.75 1434.6875 C2881.07470781 1432.82013507 2888.27352176 1430.71801033 2895.46337891 1428.38720703 C2909.19980035 1423.96042502 2923.14442679 1420.17257749 2937.05078125 1416.3203125 C2951.17429209 1412.40532502 2965.2312776 1408.29253787 2979.26928711 1404.08276367 C2987.25820272 1401.6897889 2995.25821604 1399.34650616 3003.28125 1397.0703125 C3014.14286734 1393.98535314 3024.94830881 1390.72518138 3035.75 1387.4375 C3039.39032754 1386.33104989 3043.03096826 1385.22563641 3046.671875 1384.12109375 C3047.54932877 1383.85485199 3048.42678253 1383.58861023 3049.33082581 1383.31430054 C3056.32063184 1381.19724626 3063.32343499 1379.12665061 3070.33251953 1377.07446289 C3074.91400466 1375.73222377 3079.48968711 1374.37144519 3084.0625 1373 C3084.80564453 1372.77828125 3085.54878906 1372.5565625 3086.31445312 1372.328125 C3091.27592641 1370.84092235 3096.22182913 1369.30775682 3101.1640625 1367.7578125 C3107.78424371 1365.6821142 3114.41504262 1363.64257389 3121.05078125 1361.6171875 C3122.03073563 1361.3180545 3123.01069 1361.01892151 3124.02033997 1360.71072388 C3126.06399766 1360.0870177 3128.10767377 1359.46337184 3130.15136719 1358.83978271 C3147.6420364 1353.50160291 3165.11930723 1348.12660593 3182.5480957 1342.58935547 C3190.03248357 1340.21618826 3197.53880306 1337.94736168 3205.07623291 1335.74937439 C3210.17585829 1334.25694637 3215.22552986 1332.6639967 3220.25 1330.9375 C3226.34510924 1328.87629494 3232.45640245 1326.9056963 3238.61328125 1325.03515625 C3243.24657237 1323.61898307 3247.86423616 1322.1544075 3252.48242188 1320.68994141 C3257.21252854 1319.19171349 3261.94558002 1317.70357375 3266.68322754 1316.2293396 C3282.8201378 1311.2078226 3298.91331358 1306.08212945 3314.93511963 1300.70401001 C3328.05195701 1296.30108156 3341.19530808 1291.98350631 3354.34918213 1287.6925354 C3400.00900858 1272.79433022 3445.59921853 1257.67149913 3491 1242 C3492.35188416 1241.53358093 3492.35188416 1241.53358093 3493.7310791 1241.05773926 C3508.05256978 1236.11555926 3522.36445946 1231.14601745 3536.67077637 1226.16009521 C3540.06316929 1224.97798814 3543.45589731 1223.7968461 3546.84863281 1222.61572266 C3575.68836567 1212.5710679 3604.45771637 1202.35291715 3633.14282227 1191.87451172 C3635.38816743 1191.05431772 3637.63352837 1190.23416691 3639.87890625 1189.4140625 C3640.95129044 1189.02237885 3642.02367462 1188.63069519 3643.1285553 1188.22714233 C3651.42152231 1185.20207459 3659.73461262 1182.23995778 3668.0625 1179.3125 C3724.18927879 1159.51951706 3779.91114529 1138.3150766 3835.39355469 1116.78515625 C3840.57433027 1114.77569116 3845.75987941 1112.77865851 3850.9453125 1110.78125 C3853.82554447 1109.67108557 3856.7057006 1108.56072466 3859.58581543 1107.45025635 C3861.37290602 1106.76131646 3863.16008837 1106.0726145 3864.9473877 1105.38421631 C3894.5590537 1093.97480712 3924.03795432 1082.22670904 3953.5 1070.4375 C3954.30931976 1070.11371872 3955.11863953 1069.78993744 3955.95248413 1069.4563446 C3997.17861266 1052.96249809 4038.29429731 1036.22490813 4079.22412109 1019.00732422 C4083.67434532 1017.13581411 4088.1275962 1015.27161807 4092.58203125 1013.41015625 C4108.16542219 1006.89607175 4123.70976324 1000.29512248 4139.22558594 993.62158203 C4143.30734284 991.86697273 4147.39184645 990.11880081 4151.4765625 988.37109375 C4233.03930375 953.47028043 4313.97174517 917.13896289 4469.8125 843.375 C4471.17398834 842.71353643 4472.53547918 842.05207799 4473.89697266 841.390625 C4474.54946991 841.07361633 4475.20196716 840.75660767 4475.87423706 840.42999268 C4482.72095479 837.10388433 4489.56917649 833.78133169 4496.4375 830.5 C4497.20102783 830.13181152 4497.96455566 829.76362305 4498.7512207 829.38427734 C4503.76677367 827 4503.76677367 827 4506 827 C4506 1204.85 4506 1582.7 4506 1972 C3019.02 1972 1532.04 1972 0 1972 C0 1321.24 0 670.48 0 0 Z " fill="#FEFEFE" transform="translate(0,1400)"/>
<path d="M0 0 C0.33 0 0.66 0 1 0 C1.14463977 45.45400033 1.28403487 90.90801609 1.42055893 136.36204147 C1.43182521 140.11274597 1.44310953 143.86345042 1.45441055 147.61415482 C1.76611269 251.07743262 2.03354326 354.5407287 2.23837018 458.00427628 C2.25392857 465.8620124 2.26961156 473.71974828 2.28530693 481.57748413 C2.37843115 528.23296452 2.47092978 574.8884461 2.5541687 621.54394531 C2.60635368 650.76888548 2.66041562 679.9938214 2.71875 709.21875 C2.72114666 710.41979799 2.72354333 711.62084598 2.72601262 712.85828936 C2.87341162 786.4339082 3.13221592 860.00839543 3.48495555 933.58330023 C3.9087381 1021.97888686 4.21979817 1110.37447479 4.48447537 1198.77065659 C4.49999746 1203.95419068 4.5155703 1209.13772462 4.53114891 1214.32125854 C4.6715706 1261.05833139 4.80887959 1307.79541319 4.94531253 1354.53249782 C5.12035472 1414.49120759 5.29762453 1474.44991081 5.47673057 1534.40860858 C5.49478793 1540.45470555 5.51280415 1546.50080265 5.53080368 1552.5468998 C5.77763519 1635.43907371 6.04123411 1718.33115793 7 1972 C4.69 1972 2.38 1972 0 1972 C0 1321.24 0 670.48 0 0 Z " fill="#F2F3F3" transform="translate(0,1400)"/>
<path d="M0 0 C0.99 0.66 1.98 1.32 3 2 C0.35261084 3.4606285 -0.89448334 4 -4 4 C-3.67 4.99 -3.34 5.98 -3 7 C-3.99 7 -4.98 7 -6 7 C-6.33 8.65 -6.66 10.3 -7 12 C-7.7425 11.814375 -8.485 11.62875 -9.25 11.4375 C-11.92229373 10.82527572 -11.92229373 10.82527572 -14.1875 11.5625 C-14.785625 11.706875 -15.38375 11.85125 -16 12 C-16.66 11.34 -17.32 10.68 -18 10 C-12.06 6.7 -6.12 3.4 0 0 Z " fill="#273046" transform="translate(3859,460)"/>
<path d="M0 0 C-1.36983503 3.16115776 -1.9890638 3.9927092 -5 6 C-6.20450304 8.55183404 -6.20450304 8.55183404 -7 11 C-7.61875 10.814375 -8.2375 10.62875 -8.875 10.4375 C-11.04160178 9.76313824 -11.04160178 9.76313824 -13 11 C-13 10.34 -13 9.68 -13 9 C-14.98 9.99 -14.98 9.99 -17 11 C-17.66 10.34 -18.32 9.68 -19 9 C-16.2118978 7.4933028 -13.41896042 5.99580196 -10.625 4.5 C-9.8309375 4.07074219 -9.036875 3.64148438 -8.21875 3.19921875 C-7.45820313 2.79316406 -6.69765625 2.38710938 -5.9140625 1.96875 C-4.8614624 1.40317383 -4.8614624 1.40317383 -3.78759766 0.82617188 C-2 0 -2 0 0 0 Z " fill="#2C3547" transform="translate(3787,500)"/>
<path d="M0 0 C0.33 1.32 0.66 2.64 1 4 C-2.75 5.125 -2.75 5.125 -5 4 C-5 4.66 -5 5.32 -5 6 C-9.95 7.485 -9.95 7.485 -15 9 C-15.66 8.34 -16.32 7.68 -17 7 C-14.54379149 5.82866942 -12.08525083 4.66278278 -9.625 3.5 C-8.92632813 3.16613281 -8.22765625 2.83226562 -7.5078125 2.48828125 C-2.2265625 0 -2.2265625 0 0 0 Z " fill="#2B3449" transform="translate(3454,663)"/>
<path d="M0 0 C-1.11666174 3.34998521 -1.74694925 3.79340222 -4.5625 5.6875 C-5.20316406 6.12449219 -5.84382813 6.56148438 -6.50390625 7.01171875 C-6.99761719 7.33785156 -7.49132813 7.66398437 -8 8 C-7.67 8.66 -7.34 9.32 -7 10 C-9.57213134 11.61949011 -10.67669159 12.04408751 -13.75 11.625 C-14.86375 11.315625 -14.86375 11.315625 -16 11 C-14.6551963 6.96558889 -12.04690097 5.87332753 -8.5625 3.8125 C-7.96373047 3.44447266 -7.36496094 3.07644531 -6.74804688 2.69726562 C-2.27929325 0 -2.27929325 0 0 0 Z " fill="#293244" transform="translate(4050,348)"/>
<path d="M0 0 C0.33 0.99 0.66 1.98 1 3 C0.34 3 -0.32 3 -1 3 C-0.67 4.32 -0.34 5.64 0 7 C-2.64 6.67 -5.28 6.34 -8 6 C-8 6.66 -8 7.32 -8 8 C-8.99 7.67 -9.98 7.34 -11 7 C-10.74609375 5.109375 -10.74609375 5.109375 -10 3 C-8.22265625 1.953125 -8.22265625 1.953125 -6.0625 1.25 C-5.35222656 1.00765625 -4.64195312 0.7653125 -3.91015625 0.515625 C-2 0 -2 0 0 0 Z " fill="#273147" transform="translate(3087,815)"/>
<path d="M0 0 C-2.66936639 2.19269382 -4.64181221 3.28765714 -8 4 C-9.6744239 4.6469365 -11.34302621 5.30959426 -13 6 C-13 5.01 -13 4.02 -13 3 C-15.31 3.66 -17.62 4.32 -20 5 C-20 4.34 -20 3.68 -20 3 C-17.41932437 2.30081695 -14.83627153 1.61538951 -12.25 0.9375 C-11.15558594 0.63875977 -11.15558594 0.63875977 -10.0390625 0.33398438 C-6.28968956 -0.63744407 -3.69725762 -1.15449387 0 0 Z " fill="#333D4E" transform="translate(1825,1194)"/>
<path d="M0 0 C-0.66 2.31 -1.32 4.62 -2 7 C-3.32 7 -4.64 7 -6 7 C-5.67 5.68 -5.34 4.36 -5 3 C-6.98 4.32 -8.96 5.64 -11 7 C-12.32 6.34 -13.64 5.68 -15 5 C-12.18178397 3.12118931 -10.14357281 2.30990783 -6.9375 1.375 C-6.05964844 1.11460937 -5.18179688 0.85421875 -4.27734375 0.5859375 C-2 0 -2 0 0 0 Z " fill="#2D374B" transform="translate(2492,1016)"/>
<path d="M0 0 C0.66 0.33 1.32 0.66 2 1 C1.2884375 1.680625 1.2884375 1.680625 0.5625 2.375 C-1.09027808 3.93258204 -1.09027808 3.93258204 -2 6 C-2.99 5.67 -3.98 5.34 -5 5 C-5.33 5.66 -5.66 6.32 -6 7 C-8.9375 7.75 -8.9375 7.75 -12 8 C-12.66 7.34 -13.32 6.68 -14 6 C-11.71220962 4.96959833 -9.42048864 3.95047982 -7.125 2.9375 C-6.47402344 2.64294922 -5.82304687 2.34839844 -5.15234375 2.04492188 C-3.45989459 1.30338487 -1.73131425 0.64560999 0 0 Z " fill="#2D3649" transform="translate(3378,696)"/>
<path d="M0 0 C0.66 0.33 1.32 0.66 2 1 C0.1875 4 0.1875 4 -2 7 C-2.99 7 -3.98 7 -5 7 C-5.66 8.32 -6.32 9.64 -7 11 C-7 10.34 -7 9.68 -7 9 C-8.65 9.33 -10.3 9.66 -12 10 C-8.29909479 6.0747975 -4.45040344 3.05419844 0 0 Z " fill="#293245" transform="translate(4249,212)"/>
<path d="M0 0 C-0.33 1.65 -0.66 3.3 -1 5 C-4.81756824 6.37432457 -8.07255329 5.67975039 -12 5 C-12.33 5.66 -12.66 6.32 -13 7 C-13.99 6.34 -14.98 5.68 -16 5 C-13.70967689 4.16280617 -11.41789043 3.3301071 -9.125 2.5 C-8.47402344 2.26152344 -7.82304687 2.02304687 -7.15234375 1.77734375 C-2.2265625 0 -2.2265625 0 0 0 Z " fill="#313A4E" transform="translate(2884,889)"/>
<path d="M0 0 C-0.0625 1.8125 -0.0625 1.8125 -1 4 C-4.4960903 5.81278756 -7.03981755 7 -11 7 C-11 5.68 -11 4.36 -11 3 C-9.54293274 2.49632243 -8.08429904 1.99717444 -6.625 1.5 C-5.81289062 1.2215625 -5.00078125 0.943125 -4.1640625 0.65625 C-2 0 -2 0 0 0 Z " fill="#283248" transform="translate(2701,951)"/>
<path d="M0 0 C0.66 0.33 1.32 0.66 2 1 C-0.15280425 4.96115982 -1.31086249 6.72192697 -5.5625 8.4375 C-9 9 -9 9 -12 8 C-8.04 5.36 -4.08 2.72 0 0 Z " fill="#2B3547" transform="translate(4107,310)"/>
<path d="M0 0 C-0.33 0.99 -0.66 1.98 -1 3 C-3.0625 3.6875 -3.0625 3.6875 -5 4 C-5 4.66 -5 5.32 -5 6 C-6.32 5.67 -7.64 5.34 -9 5 C-9.33 5.66 -9.66 6.32 -10 7 C-11.65 6.67 -13.3 6.34 -15 6 C-12.29954818 4.19969878 -9.93322119 3.06622934 -6.9375 1.875 C-6.05964844 1.52179687 -5.18179688 1.16859375 -4.27734375 0.8046875 C-2 0 -2 0 0 0 Z " fill="#2F394C" transform="translate(3144,793)"/>
<path d="M0 0 C0.66 0.99 1.32 1.98 2 3 C-1.75 6 -1.75 6 -4 6 C-4 6.66 -4 7.32 -4 8 C-4.66 8 -5.32 8 -6 8 C-6.33 8.66 -6.66 9.32 -7 10 C-8.66666667 10 -10.33333333 10 -12 10 C-8.04 6.7 -4.08 3.4 0 0 Z " fill="#2C3647" transform="translate(4382,109)"/>
<path d="M0 0 C0 0.66 0 1.32 0 2 C-1.64333504 3.03789581 -3.31243867 4.03567924 -5 5 C-5.66 5.66 -6.32 6.32 -7 7 C-9.125 7.625 -9.125 7.625 -11 8 C-10.67 6.68 -10.34 5.36 -10 4 C-10.66 3.67 -11.32 3.34 -12 3 C-10.37604003 2.49663233 -8.75079459 1.99741024 -7.125 1.5 C-6.22007812 1.2215625 -5.31515625 0.943125 -4.3828125 0.65625 C-2 0 -2 0 0 0 Z " fill="#323C4F" transform="translate(2673,960)"/>
<path d="M0 0 C0.33 1.65 0.66 3.3 1 5 C-0.093125 4.814375 -1.18625 4.62875 -2.3125 4.4375 C-5.93624133 3.7421932 -5.93624133 3.7421932 -9 5 C-10.66621616 5.03874921 -12.33394172 5.0450286 -14 5 C-11.35493484 3.23662322 -9.40786033 2.3439149 -6.4375 1.375 C-5.65246094 1.11460937 -4.86742188 0.85421875 -4.05859375 0.5859375 C-2 0 -2 0 0 0 Z " fill="#333B4F" transform="translate(2812,914)"/>
<path d="M0 0 C0.66 0.33 1.32 0.66 2 1 C-0.20979308 3.81939117 -2.40062046 6.53058944 -5 9 C-7.475 8.01 -7.475 8.01 -10 7 C-6.81404865 4.36021174 -3.69029454 1.89501612 0 0 Z " fill="#2A3346" transform="translate(3939,414)"/>
<path d="M0 0 C-5.26112288 5.01641949 -5.26112288 5.01641949 -8.8125 4.9375 C-11 4 -11 4 -12 2 C-10.37787941 1.47026689 -8.75218416 0.95146893 -7.125 0.4375 C-6.22007812 0.14746094 -5.31515625 -0.14257812 -4.3828125 -0.44140625 C-2 -1 -2 -1 0 0 Z " fill="#323A4F" transform="translate(2575,992)"/>
<path d="M0 0 C1.32 0.99 2.64 1.98 4 3 C3.01 4.485 3.01 4.485 2 6 C1.01 6 0.02 6 -1 6 C-1 5.34 -1 4.68 -1 4 C-1.66 4 -2.32 4 -3 4 C-3.33 4.66 -3.66 5.32 -4 6 C-5.32 5.67 -6.64 5.34 -8 5 C-4.04 2.525 -4.04 2.525 0 0 Z " fill="#262F42" transform="translate(4092,320)"/>
<path d="M0 0 C0 0.99 0 1.98 0 3 C-0.639375 3.226875 -1.27875 3.45375 -1.9375 3.6875 C-4.27193661 4.85250896 -4.27193661 4.85250896 -4.75 7.625 C-4.8325 8.40875 -4.915 9.1925 -5 10 C-6.65 9.67 -8.3 9.34 -10 9 C-8.77946141 5.33838422 -7.63217696 4.83729526 -4.4375 2.8125 C-3.61121094 2.28269531 -2.78492187 1.75289063 -1.93359375 1.20703125 C-1.29550781 0.80871094 -0.65742188 0.41039062 0 0 Z " fill="#262F42" transform="translate(4133,293)"/>
<path d="M0 0 C1.30048841 2.60097682 1.56471422 5.13955062 2 8 C-5.75 7.125 -5.75 7.125 -8 6 C-5.36 4.02 -2.72 2.04 0 0 Z M2 4 C2.66 4 3.32 4 4 4 C4 4.66 4 5.32 4 6 C3.34 6 2.68 6 2 6 C2 5.34 2 4.68 2 4 Z " fill="#232C3E" transform="translate(4267,199)"/>
<path d="M0 0 C0.33 0.99 0.66 1.98 1 3 C-0.1446875 3.8353125 -0.1446875 3.8353125 -1.3125 4.6875 C-3.96140888 6.96679369 -5.38288822 8.93599872 -7 12 C-8.32 11.67 -9.64 11.34 -11 11 C-7.37 7.37 -3.74 3.74 0 0 Z " fill="#2D3647" transform="translate(4505,0)"/>
<path d="M0 0 C-0.495 0.474375 -0.99 0.94875 -1.5 1.4375 C-3.11542197 2.75923698 -3.11542197 2.75923698 -3 4 C-9.75 3.25 -9.75 3.25 -12 1 C-3.96428571 -1.27678571 -3.96428571 -1.27678571 0 0 Z " fill="#353D51" transform="translate(1863,1185)"/>
<path d="M0 0 C0.66 0.33 1.32 0.66 2 1 C1.67 1.99 1.34 2.98 1 4 C0.01 4 -0.98 4 -2 4 C-2.66 4.66 -3.32 5.32 -4 6 C-5 7 -6 8 -7 9 C-7 7.68 -7 6.36 -7 5 C-7.66 4.67 -8.32 4.34 -9 4 C-7.54618103 3.30300448 -6.08677047 2.61766134 -4.625 1.9375 C-3.40683594 1.36322266 -3.40683594 1.36322266 -2.1640625 0.77734375 C-1.44992188 0.52082031 -0.73578125 0.26429688 0 0 Z " fill="#2D3749" transform="translate(3527,629)"/>
<path d="M0 0 C0.66 0.33 1.32 0.66 2 1 C1.01 1.99 0.02 2.98 -1 4 C-1 1 -1 1 0 0 Z M-4 3 C-3.34 3.33 -2.68 3.66 -2 4 C-5.27708863 7.67033927 -8.71522208 9.69281189 -13 12 C-11.83709195 8.51127585 -10.86032391 7.90023136 -7.9375 5.8125 C-7.20402344 5.28269531 -6.47054687 4.75289062 -5.71484375 4.20703125 C-5.14894531 3.80871094 -4.58304688 3.41039062 -4 3 Z " fill="#2B3344" transform="translate(4292,180)"/>
<path d="M0 0 C-2 3 -2 3 -5.375 3.6875 C-9 4 -9 4 -13 4 C-10.56272708 2.37515139 -8.62713877 1.34310925 -5.9375 0.3125 C-5.24527344 0.04050781 -4.55304687 -0.23148438 -3.83984375 -0.51171875 C-2 -1 -2 -1 0 0 Z " fill="#353D50" transform="translate(2952,866)"/>
<path d="M0 0 C-0.33 1.65 -0.66 3.3 -1 5 C-3.8125 5.6875 -3.8125 5.6875 -7 6 C-8.69921875 4.51953125 -8.69921875 4.51953125 -10 3 C-8.70990357 2.49596232 -7.41786211 1.99690074 -6.125 1.5 C-5.04605469 1.08234375 -5.04605469 1.08234375 -3.9453125 0.65625 C-2 0 -2 0 0 0 Z M-6 3 C-6.33 3.66 -6.66 4.32 -7 5 C-6.01 4.67 -5.02 4.34 -4 4 C-4.66 3.67 -5.32 3.34 -6 3 Z " fill="#313B4F" transform="translate(3023,839)"/>
<path d="M0 0 C0.33 0.99 0.66 1.98 1 3 C0.34 3 -0.32 3 -1 3 C-1.33 4.32 -1.66 5.64 -2 7 C-2.66 7 -3.32 7 -4 7 C-4 6.34 -4 5.68 -4 5 C-5.65 5 -7.3 5 -9 5 C-6.14693203 2.67527795 -3.45925163 1.2491742 0 0 Z " fill="#2B3549" transform="translate(3435,671)"/>
<path d="M0 0 C0.66 0.33 1.32 0.66 2 1 C0.63016497 4.16115776 0.0109362 4.9927092 -3 7 C-4.9896995 7.39013716 -6.99019869 7.73202649 -9 8 C-6.14723863 5.06799526 -3.34920216 2.35684596 0 0 Z " fill="#273144" transform="translate(4318,160)"/>
<path d="M0 0 C0.66 0.33 1.32 0.66 2 1 C0.71937515 2.7074998 -0.61767557 4.37373596 -2 6 C-2.66 6 -3.32 6 -4 6 C-4 6.99 -4 7.98 -4 9 C-5.32 8.34 -6.64 7.68 -8 7 C-8 6.34 -8 5.68 -8 5 C-6.3203125 3.67578125 -6.3203125 3.67578125 -4.125 2.3125 C-3.40570312 1.85488281 -2.68640625 1.39726562 -1.9453125 0.92578125 C-1.30335938 0.62027344 -0.66140625 0.31476563 0 0 Z " fill="#2B3548" transform="translate(4019,366)"/>
<path d="M0 0 C0.95904856 3.83619425 0.91892116 5.32431536 0 9 C-0.66 9 -1.32 9 -2 9 C-2.66 8.34 -3.32 7.68 -4 7 C-4.66 6.67 -5.32 6.34 -6 6 C-4.02 4.02 -2.04 2.04 0 0 Z " fill="#263041" transform="translate(4438,61)"/>
<path d="M0 0 C-1.2065625 0.185625 -1.2065625 0.185625 -2.4375 0.375 C-3.283125 0.58125 -4.12875 0.7875 -5 1 C-5.33 1.66 -5.66 2.32 -6 3 C-6 2.34 -6 1.68 -6 1 C-7.32 1.33 -8.64 1.66 -10 2 C-10 2.66 -10 3.32 -10 4 C-11.98 3.34 -13.96 2.68 -16 2 C-16 1.67 -16 1.34 -16 1 C-14.0852312 0.63571223 -12.16807707 0.28394694 -10.25 -0.0625 C-9.18265625 -0.25972656 -8.1153125 -0.45695312 -7.015625 -0.66015625 C-4.25228095 -0.97156937 -2.59053383 -0.8991416 0 0 Z " fill="#4B5262" transform="translate(1361,1289)"/>
<path d="M0 0 C0 0.99 0 1.98 0 3 C-0.66 3.66 -1.32 4.32 -2 5 C-2 6.32 -2 7.64 -2 9 C-4.97 8.505 -4.97 8.505 -8 8 C-5.33333333 5.33333333 -2.66666667 2.66666667 0 0 Z " fill="#273043" transform="translate(4401,93)"/>
<path d="M0 0 C-1.32 1.32 -2.64 2.64 -4 4 C-4.33 3.01 -4.66 2.02 -5 1 C-6.36125 1.556875 -6.36125 1.556875 -7.75 2.125 C-11 3 -11 3 -13.375 2.125 C-13.91125 1.75375 -14.4475 1.3825 -15 1 C-9.94997778 -0.03590199 -5.12583611 -0.10251672 0 0 Z " fill="#2C3548" transform="translate(1253,1306)"/>
<path d="M0 0 C0 1.66666667 0 3.33333333 0 5 C-3.63 5.33 -7.26 5.66 -11 6 C-7.19409895 3.14557422 -4.32409846 1.74627053 0 0 Z " fill="#323B4C" transform="translate(3516,634)"/>
<path d="M0 0 C0 0.99 0 1.98 0 3 C-0.99 3 -1.98 3 -3 3 C-3.33 3.66 -3.66 4.32 -4 5 C-6.64 4.67 -9.28 4.34 -12 4 C-8.36043372 1.57362248 -4.44144233 0 0 0 Z " fill="#3A4355" transform="translate(2348,1058)"/>
<path d="M0 0 C-3.69948187 3.61139896 -3.69948187 3.61139896 -6 5 C-9.375 4.8125 -9.375 4.8125 -12 4 C-9.94577945 1.94577945 -8.66990976 1.31862408 -6 0.3125 C-5.29875 0.04050781 -4.5975 -0.23148438 -3.875 -0.51171875 C-2 -1 -2 -1 0 0 Z " fill="#323A4D" transform="translate(3100,811)"/>
<path d="M0 0 C0.66 0.33 1.32 0.66 2 1 C0.35 2.65 -1.3 4.3 -3 6 C-5.475 5.01 -5.475 5.01 -8 4 C-5.31143836 2.20762558 -3.0466145 1.01553817 0 0 Z " fill="#313A4F" transform="translate(3160,786)"/>
<path d="M0 0 C0 3 0 3 -1.9375 5.0625 C-2.618125 5.701875 -3.29875 6.34125 -4 7 C-4.33 7.66 -4.66 8.32 -5 9 C-5.99 8.67 -6.98 8.34 -8 8 C-6.88333826 4.65001479 -6.25305075 4.20659778 -3.4375 2.3125 C-2.79683594 1.87550781 -2.15617187 1.43851563 -1.49609375 0.98828125 C-1.00238281 0.66214844 -0.50867187 0.33601562 0 0 Z " fill="#293344" transform="translate(4217,235)"/>
<path d="M0 0 C-2.93828597 2.50298434 -5.17902761 3.46930939 -9 4 C-9.33 3.01 -9.66 2.02 -10 1 C-3.71428571 -1.42857143 -3.71428571 -1.42857143 0 0 Z " fill="#293345" transform="translate(1825,1194)"/>
<path d="M0 0 C0.66 0.33 1.32 0.66 2 1 C1.375 3.4375 1.375 3.4375 0 6 C-3.125 6.8125 -3.125 6.8125 -6 7 C-4.60667426 3.63279613 -3.0210714 2.0140476 0 0 Z " fill="#293345" transform="translate(4235,222)"/>
<path d="M0 0 C0.66 0.33 1.32 0.66 2 1 C0.25 5.875 0.25 5.875 -2 7 C-2.66 6.67 -3.32 6.34 -4 6 C-4.33 6.66 -4.66 7.32 -5 8 C-5 5 -5 5 -2.5 2.3125 C-1.675 1.549375 -0.85 0.78625 0 0 Z " fill="#273142" transform="translate(4446,54)"/>
<path d="M0 0 C-2.42115191 2.42115191 -3.64160525 2.60948898 -7 3 C-9.8125 2.5625 -9.8125 2.5625 -12 2 C-7.72170329 -0.29194467 -4.74957752 -1.52664992 0 0 Z " fill="#353D50" transform="translate(2048,1140)"/>
<path d="M0 0 C0 0.66 0 1.32 0 2 C-0.99 2.33 -1.98 2.66 -3 3 C-3.33 3.99 -3.66 4.98 -4 6 C-4.99 5.67 -5.98 5.34 -7 5 C-7 4.34 -7 3.68 -7 3 C-7.66 2.67 -8.32 2.34 -9 2 C-2.25 0 -2.25 0 0 0 Z " fill="#384152" transform="translate(2380,1049)"/>
<path d="M0 0 C0 0.66 0 1.32 0 2 C-2.31 3.32 -4.62 4.64 -7 6 C-7 5.34 -7 4.68 -7 4 C-7.99 3.67 -8.98 3.34 -10 3 C-8.70990357 2.49596232 -7.41786211 1.99690074 -6.125 1.5 C-5.04605469 1.08234375 -5.04605469 1.08234375 -3.9453125 0.65625 C-2 0 -2 0 0 0 Z " fill="#353E51" transform="translate(3063,824)"/>
<path d="M0 0 C0.6875 1.8125 0.6875 1.8125 1 4 C-0.25 5.75 -0.25 5.75 -2 7 C-2.99 7 -3.98 7 -5 7 C-5 6.01 -5 5.02 -5 4 C-2.5 1.8125 -2.5 1.8125 0 0 Z " fill="#293243" transform="translate(4341,142)"/>
<path d="M0 0 C-0.99 0.33 -1.98 0.66 -3 1 C-3.99 2.485 -3.99 2.485 -5 4 C-7.99332739 3.0022242 -8.94766315 2.2477975 -11 0 C-3.57142857 -1.28571429 -3.57142857 -1.28571429 0 0 Z " fill="#434D5E" transform="translate(1300,1299)"/>
<path d="M0 0 C-3.44833324 2.05257931 -5.31661591 3.0632763 -9.375 2.6875 C-10.24125 2.460625 -11.1075 2.23375 -12 2 C-7.89783794 -0.73477471 -4.73617773 -1.57872591 0 0 Z " fill="#424A59" transform="translate(1603,1243)"/>
<path d="M0 0 C1.32 0.33 2.64 0.66 4 1 C4 1.66 4 2.32 4 3 C4.66 3.33 5.32 3.66 6 4 C4.35 4.66 2.7 5.32 1 6 C0.67 4.02 0.34 2.04 0 0 Z " fill="#293248" transform="translate(1679,1225)"/>
<path d="M0 0 C-0.33 1.32 -0.66 2.64 -1 4 C-4.3 4.33 -7.6 4.66 -11 5 C-3.5 0 -3.5 0 0 0 Z " fill="#323B4E" transform="translate(3416,680)"/>
<path d="M0 0 C0 0.99 0 1.98 0 3 C-3.465 4.485 -3.465 4.485 -7 6 C-7.66 5.34 -8.32 4.68 -9 4 C-6.03 2.68 -3.06 1.36 0 0 Z " fill="#323B4E" transform="translate(3446,666)"/>
<path d="M0 0 C-0.33 1.32 -0.66 2.64 -1 4 C-2.32 4 -3.64 4 -5 4 C-5.66 4.66 -6.32 5.32 -7 6 C-7.99 5.34 -8.98 4.68 -10 4 C-8.71086513 3.32845067 -7.41859796 2.66291141 -6.125 2 C-5.40570312 1.62875 -4.68640625 1.2575 -3.9453125 0.875 C-2 0 -2 0 0 0 Z " fill="#3D4556" transform="translate(3651,570)"/>
<path d="M0 0 C0.33 0.99 0.66 1.98 1 3 C-2.75 5 -2.75 5 -5 5 C-5.33 4.01 -5.66 3.02 -6 2 C-2.25 0 -2.25 0 0 0 Z " fill="#2B3547" transform="translate(3703,544)"/>
<path d="M0 0 C3.96 0 7.92 0 12 0 C12 0.33 12 0.66 12 1 C11.39671875 1.04898437 10.7934375 1.09796875 10.171875 1.1484375 C8.97304688 1.26058594 8.97304688 1.26058594 7.75 1.375 C6.56664062 1.47941406 6.56664062 1.47941406 5.359375 1.5859375 C2.914123 2.01507113 1.15163097 2.78600638 -1 4 C-0.67 2.68 -0.34 1.36 0 0 Z " fill="#343D4E" transform="translate(450,1346)"/>
<path d="M0 0 C-1.65 1.32 -3.3 2.64 -5 4 C-6.32 3.34 -7.64 2.68 -9 2 C-3.42857143 -1.71428571 -3.42857143 -1.71428571 0 0 Z " fill="#394054" transform="translate(2486,1019)"/>
<path d="M0 0 C0 0.66 0 1.32 0 2 C-0.61875 2.28875 -1.2375 2.5775 -1.875 2.875 C-4.13325765 3.93720042 -4.13325765 3.93720042 -6 6 C-7.32 5.34 -8.64 4.68 -10 4 C-8.71086513 3.32845067 -7.41859796 2.66291141 -6.125 2 C-5.40570312 1.62875 -4.68640625 1.2575 -3.9453125 0.875 C-2 0 -2 0 0 0 Z " fill="#353D4E" transform="translate(3573,608)"/>
<path d="M0 0 C0 3.52809907 -0.64276511 4.46815512 -3 7 C-3.99 7 -4.98 7 -6 7 C-6 6.01 -6 5.02 -6 4 C-3 1.8125 -3 1.8125 0 0 Z " fill="#283242" transform="translate(4121,301)"/>
<path d="M0 0 C0.33 0 0.66 0 1 0 C1 1.65 1 3.3 1 5 C-1.64 5.66 -4.28 6.32 -7 7 C-4.66666667 4.66666667 -2.33333333 2.33333333 0 0 Z " fill="#283242" transform="translate(4461,41)"/>
<path d="M0 0 C-0.33 0.99 -0.66 1.98 -1 3 C-3.8125 3.625 -3.8125 3.625 -7 4 C-7.99 3.34 -8.98 2.68 -10 2 C-8.7090864 1.66376204 -7.41723903 1.33110751 -6.125 1 C-5.40570312 0.814375 -4.68640625 0.62875 -3.9453125 0.4375 C-2 0 -2 0 0 0 Z " fill="#434C5D" transform="translate(1961,1160)"/>
<path d="M0 0 C-0.33 1.65 -0.66 3.3 -1 5 C-1.99 5.33 -2.98 5.66 -4 6 C-4.66 4.68 -5.32 3.36 -6 2 C-2.25 0 -2.25 0 0 0 Z " fill="#2E384A" transform="translate(3261,746)"/>
<path d="M0 0 C0.66 0.33 1.32 0.66 2 1 C-0.31 2.65 -2.62 4.3 -5 6 C-5.99 5.34 -6.98 4.68 -8 4 C-6.71349294 3.30289269 -5.42059335 2.61757124 -4.125 1.9375 C-3.40570312 1.55464844 -2.68640625 1.17179688 -1.9453125 0.77734375 C-1.30335938 0.52082031 -0.66140625 0.26429688 0 0 Z " fill="#3D4454" transform="translate(3600,594)"/>
<path d="M0 0 C0.66 0.33 1.32 0.66 2 1 C1.34 2.65 0.68 4.3 0 6 C-1.32 6 -2.64 6 -4 6 C-3.6875 4.125 -3.6875 4.125 -3 2 C-2.01 1.34 -1.02 0.68 0 0 Z " fill="#242D42" transform="translate(4151,281)"/>
<path d="M0 0 C0.66 1.32 1.32 2.64 2 4 C1.34 4.66 0.68 5.32 0 6 C-0.99 5.01 -1.98 4.02 -3 3 C-2.01 2.01 -1.02 1.02 0 0 Z M-5 4 C-4.34 4.33 -3.68 4.66 -3 5 C-3.99 5 -4.98 5 -6 5 C-5.67 4.67 -5.34 4.34 -5 4 Z " fill="#2A3446" transform="translate(4332,149)"/>
<path d="M0 0 C0 0.66 0 1.32 0 2 C0.99 2.33 1.98 2.66 3 3 C2.01 3.66 1.02 4.32 0 5 C-2 4.33333333 -4 3.66666667 -6 3 C-2.25 0 -2.25 0 0 0 Z " fill="#283144" transform="translate(4348,138)"/>
<path d="M0 0 C0.99 0 1.98 0 3 0 C3 0.99 3 1.98 3 3 C1.02 3.66 -0.96 4.32 -3 5 C-1.125 1.125 -1.125 1.125 0 0 Z " fill="#222939" transform="translate(4237,2348)"/>
<path d="M0 0 C-3.35327639 2.23551759 -3.90743657 2.17283528 -7.6875 1.625 C-8.49574219 1.51414062 -9.30398438 1.40328125 -10.13671875 1.2890625 C-10.75160156 1.19367188 -11.36648438 1.09828125 -12 1 C-12 0.67 -12 0.34 -12 0 C-3.42857143 -1.28571429 -3.42857143 -1.28571429 0 0 Z " fill="#404859" transform="translate(1314,1297)"/>
<path d="M0 0 C-1.08073852 2.16147703 -2.19363264 3.41039672 -4 5 C-4.66 5 -5.32 5 -6 5 C-6 4.34 -6 3.68 -6 3 C-6.99 2.67 -7.98 2.34 -9 2 C-3.375 0 -3.375 0 0 0 Z " fill="#3E4759" transform="translate(2549,999)"/>
<path d="M0 0 C0.33 0.99 0.66 1.98 1 3 C-2.375 3.625 -2.375 3.625 -6 4 C-6.66 3.34 -7.32 2.68 -8 2 C-2.25 0 -2.25 0 0 0 Z " fill="#3E465B" transform="translate(2788,922)"/>
<path d="M0 0 C-2.93828597 2.50298434 -5.17902761 3.46930939 -9 4 C-9.33 3.34 -9.66 2.68 -10 2 C-8.71211992 1.46987262 -7.41953322 0.9511671 -6.125 0.4375 C-5.40570312 0.14746094 -4.68640625 -0.14257812 -3.9453125 -0.44140625 C-2 -1 -2 -1 0 0 Z " fill="#3A4254" transform="translate(2910,881)"/>
<path d="M0 0 C0.66 0.33 1.32 0.66 2 1 C0.3125 3.0625 0.3125 3.0625 -2 5 C-4.75 4.75 -4.75 4.75 -7 4 C-4.66603411 2.44402274 -2.57343171 1.07918104 0 0 Z " fill="#30384C" transform="translate(3396,688)"/>
<path d="M0 0 C-0.8125 1.9375 -0.8125 1.9375 -2 4 C-2.99 4.33 -3.98 4.66 -5 5 C-4.67 3.68 -4.34 2.36 -4 1 C-4.66 0.67 -5.32 0.34 -6 0 C-3.50907189 -1.24546405 -2.58919267 -0.7767578 0 0 Z " fill="#2C3549" transform="translate(3734,530)"/>
<path d="M0 0 C0 3 0 3 -2.5 5.6875 C-3.325 6.450625 -4.15 7.21375 -5 8 C-5.66 7.67 -6.32 7.34 -7 7 C-5.66667905 3.00003714 -3.5042173 2.16217663 0 0 Z " fill="#2A3344" transform="translate(4145,285)"/>
<path d="M0 0 C0.66 0.33 1.32 0.66 2 1 C0.515 3.475 0.515 3.475 -1 6 C-1.99 5.67 -2.98 5.34 -4 5 C-3 2 -3 2 0 0 Z " fill="#273142" transform="translate(4167,270)"/>
<path d="M0 0 C2.125 0.375 2.125 0.375 4 1 C3.67 1.99 3.34 2.98 3 4 C2.01 4.33 1.02 4.66 0 5 C-0.66 4.01 -1.32 3.02 -2 2 C-1.34 1.34 -0.68 0.68 0 0 Z " fill="#1A2539" transform="translate(4493,12)"/>
<path d="M0 0 C-1.32 1.32 -2.64 2.64 -4 4 C-4 3.34 -4 2.68 -4 2 C-4.99 2.33 -5.98 2.66 -7 3 C-7.66 2.34 -8.32 1.68 -9 1 C-5.92677456 0.08941469 -3.19902639 -0.08886184 0 0 Z " fill="#3D4556" transform="translate(1782,1203)"/>
<path d="M0 0 C-0.66 0 -1.32 0 -2 0 C-2.33 1.32 -2.66 2.64 -3 4 C-5.13093906 2.93453047 -6.36587557 1.70840281 -8 0 C-4.94736336 -0.98120464 -3.05263664 -0.98120464 0 0 Z " fill="#3B4456" transform="translate(2083,1131)"/>
<path d="M0 0 C-0.99 1.32 -1.98 2.64 -3 4 C-3.99 3.67 -4.98 3.34 -6 3 C-6.33 2.01 -6.66 1.02 -7 0 C-2.25 -1.125 -2.25 -1.125 0 0 Z " fill="#2B3449" transform="translate(2300,1073)"/>
<path d="M0 0 C-0.33 0.99 -0.66 1.98 -1 3 C-3.875 3.625 -3.875 3.625 -7 4 C-7.66 3.34 -8.32 2.68 -9 2 C-2.25 0 -2.25 0 0 0 Z " fill="#353F53" transform="translate(2452,1028)"/>
<path d="M0 0 C-0.33 0.99 -0.66 1.98 -1 3 C-1.66 3 -2.32 3 -3 3 C-3.66 3.66 -4.32 4.32 -5 5 C-5.99 4.01 -6.98 3.02 -8 2 C-2.25 0 -2.25 0 0 0 Z " fill="#394257" transform="translate(2725,943)"/>
<path d="M0 0 C-0.66 2.31 -1.32 4.62 -2 7 C-5 3.25 -5 3.25 -5 1 C-2 0 -2 0 0 0 Z " fill="#333C50" transform="translate(2864,896)"/>
<path d="M0 0 C0.33 0.99 0.66 1.98 1 3 C1.99 3.33 2.98 3.66 4 4 C2.02 4.99 2.02 4.99 0 6 C-0.12375 5.360625 -0.2475 4.72125 -0.375 4.0625 C-0.684375 3.0415625 -0.684375 3.0415625 -1 2 C-1.66 1.67 -2.32 1.34 -3 1 C-2.01 0.67 -1.02 0.34 0 0 Z " fill="#293347" transform="translate(3223,761)"/>
<path d="M0 0 C0.66 0.33 1.32 0.66 2 1 C1 3 1 3 -1.375 4.25 C-2.674375 4.62125 -2.674375 4.62125 -4 5 C-4.99 4.34 -5.98 3.68 -7 3 C-4.69631264 1.93347808 -2.35981813 0.93578995 0 0 Z " fill="#31384B" transform="translate(3343,711)"/>
<path d="M0 0 C0.66 0.33 1.32 0.66 2 1 C0.8125 3 0.8125 3 -1 5 C-3.6875 5.25 -3.6875 5.25 -6 5 C-6 4.34 -6 3.68 -6 3 C-4.03533587 1.93224776 -2.03144641 0.93446535 0 0 Z " fill="#31394B" transform="translate(3761,513)"/>
<path d="M0 0 C0 0.66 0 1.32 0 2 C-0.99 2.495 -0.99 2.495 -2 3 C-2.65213292 5.02463255 -2.65213292 5.02463255 -3 7 C-3.33 6.01 -3.66 5.02 -4 4 C-4.99 3.67 -5.98 3.34 -7 3 C-2.25 0 -2.25 0 0 0 Z " fill="#2D3749" transform="translate(3882,448)"/>
<path d="M0 0 C0.33 0.66 0.66 1.32 1 2 C0.01 3.32 -0.98 4.64 -2 6 C-2.66 5.67 -3.32 5.34 -4 5 C-4 4.01 -4 3.02 -4 2 C-2.68 1.34 -1.36 0.68 0 0 Z " fill="#2E374A" transform="translate(3980,390)"/>
<path d="M0 0 C0 2.62113708 -0.31292445 4.50935112 -1 7 C-1.99 6.67 -2.98 6.34 -4 6 C-3.6875 4.125 -3.6875 4.125 -3 2 C-2.01 1.34 -1.02 0.68 0 0 Z " fill="#273144" transform="translate(4081,327)"/>
<path d="M0 0 C0.66 0.99 1.32 1.98 2 3 C-1.75 6 -1.75 6 -4 6 C-4 5.01 -4 4.02 -4 3 C-2 1.3125 -2 1.3125 0 0 Z " fill="#242E40" transform="translate(4382,109)"/>
<path d="M0 0 C0.99 0.33 1.98 0.66 3 1 C2.01 2.485 2.01 2.485 1 4 C0.34 4 -0.32 4 -1 4 C-1.33 4.66 -1.66 5.32 -2 6 C-2.66 6 -3.32 6 -4 6 C-2.84826645 3.53199953 -1.95216435 1.95216435 0 0 Z " fill="#2D3546" transform="translate(4430,68)"/>
</svg>
